<?xml version="1.0" encoding="UTF-8"?>
<svg width="15px" height="14px" viewBox="0 0 15 14" version="1.1" xmlns="http://www.w3.org/2000/svg" xmlns:xlink="http://www.w3.org/1999/xlink">
    <g id="Symbols" stroke="none" stroke-width="1" fill="none" fill-rule="evenodd">
        <g id="Folder-List-/-Shared-/-Hover" transform="translate(-601.000000, -20.000000)" fill="#3899EC">
            <g id="Group-4" transform="translate(510.000000, 12.000000)">
                <path d="M104.5,8 L99,8 L98,8 L92.5,8 C91.673,8 91,8.673 91,9.5 L91,13 L92,13 L92,9.5 C92,9.224 92.225,9 92.5,9 L98,9 L98,21 L95,21 L95,22 L102,22 L102,21 L99,21 L99,9 L104.5,9 C104.775,9 105,9.224 105,9.5 L105,13 L106,13 L106,9.5 C106,8.673 105.327,8 104.5,8" id="Page-1"></path>
            </g>
        </g>
    </g>
</svg>